<svg width="16" height="15" viewBox="0 0 16 15" fill="none" xmlns="http://www.w3.org/2000/svg">
<path fill-rule="evenodd" clip-rule="evenodd" d="M2.934 5.92484C3.12133 6.10994 3.378 6.21402 3.642 6.21402H3.668C3.94533 6.20743 4.19933 6.09084 4.38467 5.8873L6.48933 3.57719C6.84667 3.18525 6.83 2.58648 6.45267 2.21299L6 1.65506C5.80733 1.46469 5.53067 1.36259 5.268 1.36655C4.99467 1.37313 4.55067 1.69261 4.55067 1.69261L1.84267 3.52186C1.48667 3.91247 1.50267 4.51059 1.87867 4.88276L2.934 5.92484ZM7.148 7.32922L8.11533 6.23641C9.03133 6.84836 10.1127 7.17442 11.2187 7.17179H11.6667C12.2193 7.17179 12.6667 6.72913 12.6667 6.18372C12.6667 5.63764 12.2193 5.19565 11.6667 5.19565H11.2187C10.2773 5.19301 9.37467 4.82347 8.70733 4.16739C8.516 3.96714 8.24467 3.86175 7.96667 3.87888C7.69 3.88744 7.43 4.00996 7.24733 4.21548L4.914 6.85034C4.55133 7.26203 4.594 7.88649 5.01067 8.24417C5.04333 8.2725 5.078 8.29885 5.114 8.32322L5.55667 8.61437C6.74867 9.40812 7.32933 10.8395 7.02333 12.2268C6.892 12.757 7.22 13.2926 7.75667 13.4223C8.29333 13.5521 8.83467 13.2273 8.966 12.6971C8.96933 12.6839 8.97267 12.6694 8.97533 12.6556C9.41 10.6827 8.70733 8.63347 7.148 7.32922ZM14.6667 11.7828C14.6667 10.8731 13.9207 10.136 13 10.136C12.0793 10.136 11.3333 10.8731 11.3333 11.7828C11.3333 12.6918 12.0793 13.4296 13 13.4296C13.9207 13.4296 14.6667 12.6918 14.6667 11.7828ZM16 11.7828C16 13.4197 14.6567 14.747 13 14.747C11.3433 14.747 10 13.4197 10 11.7828C10 10.1452 11.3433 8.81857 13 8.81857C14.6567 8.81857 16 10.1452 16 11.7828ZM4.66667 11.7828C4.66667 10.8731 3.92067 10.136 3 10.136C2.07933 10.136 1.33333 10.8731 1.33333 11.7828C1.33333 12.6918 2.07933 13.4296 3 13.4296C3.92067 13.4296 4.66667 12.6918 4.66667 11.7828ZM6 11.7828C6 13.4197 4.65667 14.747 3 14.747C1.34333 14.747 0 13.4197 0 11.7828C0 10.1452 1.34333 8.81857 3 8.81857C4.65667 8.81857 6 10.1452 6 11.7828ZM8.08333 2.23144C8.08333 1.3672 8.79267 0.666992 9.66667 0.666992C10.5413 0.666992 11.25 1.3672 11.25 2.23144C11.25 3.095 10.5413 3.79588 9.66667 3.79588C8.79267 3.79588 8.08333 3.095 8.08333 2.23144Z" fill="white"/>
</svg>
