<svg width="20" height="20" viewBox="0 0 20 20" fill="none" xmlns="http://www.w3.org/2000/svg">
<mask id="path-1-inside-1_7201_60066" fill="white">
<path fill-rule="evenodd" clip-rule="evenodd" d="M2.7812 5.81275C1.6684 6.55461 1 7.80354 1 9.14095V15.0002C1 17.2094 2.79086 19.0002 5 19.0002H15C17.2091 19.0002 19 17.2094 19 15.0002V9.14095C19 7.80354 18.3316 6.55461 17.2188 5.81275L12.2188 2.47942C10.8752 1.58368 9.1248 1.58368 7.7812 2.47942L2.7812 5.81275ZM10 15.0002C11.6569 15.0002 13 13.6571 13 12.0002C13 10.3434 11.6569 9.00022 10 9.00022C8.34315 9.00022 7 10.3434 7 12.0002C7 13.6571 8.34315 15.0002 10 15.0002Z"/>
</mask>
<path fill-rule="evenodd" clip-rule="evenodd" d="M2.7812 5.81275C1.6684 6.55461 1 7.80354 1 9.14095V15.0002C1 17.2094 2.79086 19.0002 5 19.0002H15C17.2091 19.0002 19 17.2094 19 15.0002V9.14095C19 7.80354 18.3316 6.55461 17.2188 5.81275L12.2188 2.47942C10.8752 1.58368 9.1248 1.58368 7.7812 2.47942L2.7812 5.81275ZM10 15.0002C11.6569 15.0002 13 13.6571 13 12.0002C13 10.3434 11.6569 9.00022 10 9.00022C8.34315 9.00022 7 10.3434 7 12.0002C7 13.6571 8.34315 15.0002 10 15.0002Z" fill="black"/>
<path d="M2.7812 5.81275L2.2265 4.9807H2.2265L2.7812 5.81275ZM17.2188 5.81275L17.7735 4.9807L17.2188 5.81275ZM12.2188 2.47942L11.6641 3.31147V3.31147L12.2188 2.47942ZM7.7812 2.47942L8.3359 3.31147L7.7812 2.47942ZM2 9.14095C2 8.13789 2.5013 7.2012 3.3359 6.6448L2.2265 4.9807C0.835506 5.90803 0 7.46918 0 9.14095H2ZM2 15.0002V9.14095H0V15.0002H2ZM5 18.0002C3.34315 18.0002 2 16.6571 2 15.0002H0C0 17.7616 2.23858 20.0002 5 20.0002V18.0002ZM15 18.0002H5V20.0002H15V18.0002ZM18 15.0002C18 16.6571 16.6569 18.0002 15 18.0002V20.0002C17.7614 20.0002 20 17.7616 20 15.0002H18ZM18 9.14095V15.0002H20V9.14095H18ZM16.6641 6.6448C17.4987 7.2012 18 8.13789 18 9.14095H20C20 7.46918 19.1645 5.90803 17.7735 4.9807L16.6641 6.6448ZM11.6641 3.31147L16.6641 6.6448L17.7735 4.9807L12.7735 1.64737L11.6641 3.31147ZM8.3359 3.31147C9.3436 2.63967 10.6564 2.63967 11.6641 3.31147L12.7735 1.64737C11.094 0.527701 8.90599 0.527701 7.2265 1.64737L8.3359 3.31147ZM3.3359 6.6448L8.3359 3.31147L7.2265 1.64737L2.2265 4.9807L3.3359 6.6448ZM12 12.0002C12 13.1048 11.1046 14.0002 10 14.0002V16.0002C12.2091 16.0002 14 14.2094 14 12.0002H12ZM10 10.0002C11.1046 10.0002 12 10.8956 12 12.0002H14C14 9.79108 12.2091 8.00022 10 8.00022V10.0002ZM8 12.0002C8 10.8956 8.89543 10.0002 10 10.0002V8.00022C7.79086 8.00022 6 9.79108 6 12.0002H8ZM10 14.0002C8.89543 14.0002 8 13.1048 8 12.0002H6C6 14.2094 7.79086 16.0002 10 16.0002V14.0002Z" fill="black" mask="url(#path-1-inside-1_7201_60066)"/>
<style xmlns="">
    html {
      display: revert !important;
    }
  </style></svg>