<svg width="20" height="20" viewBox="0 0 20 20" fill="none" xmlns="http://www.w3.org/2000/svg">
<path fill-rule="evenodd" clip-rule="evenodd" d="M9.59458 14.5C12.7747 14.5 15.3527 11.9257 15.3527 8.75004C15.3527 5.5744 12.7747 3.00004 9.59458 3.00004C6.41443 3.00004 3.83641 5.5744 3.83641 8.75004C3.83641 11.9257 6.41443 14.5 9.59458 14.5ZM9.59458 16.6667C13.973 16.6667 17.5225 13.1223 17.5225 8.75004C17.5225 4.37779 13.973 0.833374 9.59458 0.833374C5.21611 0.833374 1.66666 4.37779 1.66666 8.75004C1.66666 13.1223 5.21611 16.6667 9.59458 16.6667Z" fill="white"/>
<path fill-rule="evenodd" clip-rule="evenodd" d="M16.7116 18.6364L13.3736 14.8864L14.9953 13.447L18.3333 17.197L16.7116 18.6364Z" fill="white"/>
</svg>
