<svg width="20" height="20" viewBox="0 0 20 20" fill="none" xmlns="http://www.w3.org/2000/svg">
<path fill-rule="evenodd" clip-rule="evenodd" d="M9 0.75C4.44365 0.75 0.75 4.44365 0.75 9C0.75 13.5563 4.44365 17.25 9 17.25C10.8272 17.25 12.5156 16.656 13.8828 15.6506L17.35 19.1178L19.1178 17.35L15.6506 13.8828C16.656 12.5156 17.25 10.8272 17.25 9C17.25 4.44365 13.5563 0.75 9 0.75ZM3.25 9C3.25 5.82436 5.82436 3.25 9 3.25C12.1756 3.25 14.75 5.82436 14.75 9C14.75 12.1756 12.1756 14.75 9 14.75C5.82436 14.75 3.25 12.1756 3.25 9Z" fill="#8C8C8D"/>
</svg>
