<svg width="20" height="19" viewBox="0 0 20 19" fill="none" xmlns="http://www.w3.org/2000/svg">
<path d="M4.78359 13.6677C4.22284 13.9737 3.80132 14.4806 3.60533 15.0848C3.40935 15.689 3.45373 16.3445 3.72928 16.9172C4.00499 17.49 4.49102 17.9367 5.088 18.1656C5.68498 18.3947 6.34762 18.3888 6.94044 18.1492C7.53311 17.9096 8.011 17.4544 8.27636 16.8769C8.54157 16.2993 8.57411 15.6431 8.36718 15.0426H11.9381C11.7083 15.7105 11.7764 16.444 12.125 17.0594C12.4736 17.6748 13.07 18.1139 13.7649 18.2671C14.4599 18.4202 15.1878 18.273 15.7666 17.8619C16.3454 17.451 16.7203 16.8152 16.7978 16.1137C16.8752 15.412 16.6478 14.7109 16.1724 14.1855C15.6969 13.6602 15.0184 13.3602 14.3065 13.3607H6.46087L6.25 11.6666H17.5755L20 3.34335L4.64794 3.67124L4.49354 2.29219L0.848105 0.833252L0 2.29219L2.91667 3.34335L4.78359 13.6677Z" fill="white"/>
<style xmlns="">
    html {
      display: revert !important;
    }
  </style></svg>