<svg width="16" height="16" viewBox="0 0 16 16" fill="none" xmlns="http://www.w3.org/2000/svg">
<path fill-rule="evenodd" clip-rule="evenodd" d="M8 1C8.24672 1 8.47121 1.14261 8.57605 1.36595L10.3983 5.2478L14.4603 5.87212C14.696 5.90834 14.8916 6.07329 14.9672 6.29946C15.0428 6.52562 14.9855 6.77505 14.8189 6.94567L11.8616 9.97454L12.5608 14.2612C12.6 14.5017 12.4984 14.7435 12.2992 14.8839C12.0999 15.0242 11.838 15.0385 11.6248 14.9205L8 12.9161L4.37523 14.9205C4.16196 15.0385 3.90006 15.0242 3.70082 14.8839C3.50157 14.7435 3.39999 14.5017 3.43922 14.2612L4.1384 9.97454L1.18106 6.94567C1.01447 6.77505 0.95725 6.52562 1.03281 6.29946C1.10836 6.07329 1.30402 5.90834 1.53971 5.87212L5.60172 5.2478L7.42395 1.36595C7.52879 1.14261 7.75328 1 8 1Z" fill="#FF9900"/>
</svg>
